<svg version="1.1" id="Layer_1" xmlns="http://www.w3.org/2000/svg" xmlns:xlink="http://www.w3.org/1999/xlink" x="0px" y="0px"
	 width="100%" viewBox="0 0 512 512" enable-background="new 0 0 512 512" xml:space="preserve">
<path fill="#000000" opacity="1.000000" stroke="none" 
	d="
M278.225769,319.400208 
	C256.721405,324.028076 235.728485,323.872620 215.207047,316.905121 
	C198.855011,311.353210 189.554428,299.164642 185.532486,282.626587 
	C182.057022,268.335602 182.190689,253.902451 183.751999,239.427322 
	C185.760773,220.803711 189.419861,202.582870 197.597519,185.533798 
	C200.196991,180.114319 203.040665,174.826508 206.811508,170.124680 
	C208.582733,167.916168 208.794861,166.170746 206.495850,164.193146 
	C201.194870,159.633270 196.013321,154.964905 190.163269,151.053665 
	C185.986572,148.261200 181.639862,147.737549 177.378815,149.713745 
	C157.417404,158.971436 142.790604,173.193649 136.774597,194.975143 
	C135.802963,198.493057 135.622559,202.248001 137.206818,205.762283 
	C141.847534,216.056488 153.934341,217.651108 160.472412,208.471375 
	C167.811493,198.166977 174.541168,187.428696 181.546326,176.886078 
	C182.283081,175.777283 183.034882,174.670303 183.874207,173.639450 
	C186.102585,170.902695 188.801575,170.228500 191.767059,172.325760 
	C194.881653,174.528458 194.594833,177.311020 192.690613,180.186203 
	C186.347641,189.763428 180.026749,199.355499 173.633438,208.899048 
	C171.781845,211.662994 169.895660,214.440247 167.714691,216.940430 
	C160.324112,225.412674 151.115387,227.644226 140.590820,223.725662 
	C131.450562,220.322510 125.794014,211.608582 125.559181,201.047531 
	C125.332664,190.860397 128.137131,181.562546 133.780182,173.229706 
	C144.357925,157.609940 157.346817,144.825531 175.731888,138.523682 
	C182.009842,136.371780 187.761154,136.895187 193.460861,140.215485 
	C200.412781,144.265228 206.835205,148.997818 212.552673,154.638306 
	C215.660248,157.704041 218.114731,158.423737 222.282532,155.528229 
	C239.897125,143.290848 262.545319,143.391632 280.520599,155.483154 
	C284.096344,157.888474 286.394440,158.264740 289.828735,155.004517 
	C296.328674,148.834030 303.053253,142.826920 311.476166,139.120529 
	C316.313141,136.992081 321.058990,136.402725 326.015320,138.223511 
	C348.479645,146.476089 364.513306,161.773483 373.956116,183.570465 
	C377.747772,192.322800 379.353729,201.853790 374.837158,211.183289 
	C366.814362,227.755234 345.442261,230.303741 334.026672,215.983505 
	C325.078094,204.757904 318.412201,191.981003 310.127411,180.294205 
	C307.919830,177.180099 307.852142,173.782288 311.407043,171.612411 
	C315.082977,169.368637 317.754303,171.606415 319.746826,174.616837 
	C327.284424,186.005005 334.686646,197.483353 342.292694,208.825256 
	C344.967468,212.813797 348.888794,215.119186 353.827423,214.285904 
	C359.264008,213.368607 363.477203,210.391235 365.279633,205.003464 
	C366.567749,201.153061 366.572479,196.926666 365.336639,193.151886 
	C358.436920,172.077744 344.330383,157.664597 323.890808,149.323196 
	C320.205658,147.819290 316.801971,148.457718 313.440582,150.526566 
	C307.010284,154.484268 301.338593,159.346191 295.936920,164.571960 
	C293.998718,166.447083 294.157562,168.102203 295.726196,170.222351 
	C309.111328,188.313416 314.526794,209.218246 317.465240,231.106735 
	C319.630737,247.237915 320.158081,263.270355 317.295013,279.344269 
	C313.467712,300.831573 300.139771,314.638794 278.225769,319.400208 
M234.227356,161.650894 
	C221.326431,167.478180 213.260315,178.020630 207.645676,190.365250 
	C195.199829,217.729279 191.475311,246.618423 195.566528,276.234772 
	C197.819763,292.545868 207.025574,304.099701 223.892929,308.048889 
	C241.867157,312.257202 259.861023,312.258362 277.846771,308.028931 
	C295.034271,303.987213 303.811615,292.615234 306.867767,275.702789 
	C309.517242,261.041077 308.500214,246.483673 306.584290,231.940369 
	C304.128540,213.299286 299.272766,195.400848 288.777283,179.437393 
	C276.045258,160.072235 255.325699,153.087646 234.227356,161.650894 
z"/>
<path fill="#000000" opacity="1.000000" stroke="none" 
	d="
M245.916595,334.755249 
	C247.242813,331.614929 249.222748,329.921173 252.306290,330.729767 
	C255.679932,331.614441 256.995453,334.239624 256.985596,337.565338 
	C256.924561,358.222626 256.953217,378.881104 256.705231,399.536255 
	C256.624969,406.222778 257.183899,412.411865 264.009155,415.667999 
	C271.315460,419.153625 278.708130,418.530609 285.484650,414.364838 
	C290.647858,411.190765 289.913483,404.209686 284.501007,401.369690 
	C280.819275,399.437836 276.851532,399.261169 272.820648,399.384521 
	C269.733002,399.479065 266.536011,399.402954 265.316101,395.875671 
	C264.146118,392.492615 265.816010,390.082245 268.827728,388.539062 
	C270.958862,387.447113 271.111542,385.339386 271.428986,383.422089 
	C273.956787,368.156006 276.417542,352.878784 278.883820,337.602570 
	C279.657379,332.811188 282.338135,330.105225 285.868011,330.922607 
	C290.422546,331.977234 290.638763,335.480408 290.036713,339.191650 
	C287.638245,353.976318 285.306366,368.773651 282.673279,383.516937 
	C282.032532,387.104614 282.544434,389.322632 286.251526,390.331421 
	C297.940308,393.512268 300.993744,403.606140 299.834290,411.284790 
	C298.490387,420.185120 289.632599,427.529999 279.477173,428.281342 
	C269.101624,429.049011 259.033508,428.653046 251.539795,419.548340 
	C239.789734,430.509583 226.616974,431.080566 213.203674,425.159241 
	C200.091354,419.370728 198.279724,402.154785 209.221832,393.322845 
	C211.228348,391.703308 213.537994,390.744171 215.929031,390.104736 
	C219.435577,389.167023 220.265610,386.985382 219.706665,383.717010 
	C217.325287,369.792236 214.994888,355.858765 212.648972,341.927917 
	C212.400528,340.452576 212.022446,338.979553 211.965302,337.495453 
	C211.837845,334.183990 212.854568,331.369934 216.585892,330.922791 
	C220.405777,330.464996 222.516113,332.687927 223.129517,336.286926 
	C225.504181,350.220093 227.817352,364.163727 230.143417,378.105133 
	C230.910965,382.705536 230.318832,387.756989 235.650162,390.531494 
	C237.461273,391.473999 237.573456,393.982483 236.816696,396.004913 
	C235.974777,398.254883 234.169586,399.373047 231.802567,399.511475 
	C228.486053,399.705353 225.134308,399.605042 221.855042,400.051971 
	C217.405655,400.658325 213.700882,402.687958 213.411942,407.727753 
	C213.124268,412.745392 216.635941,415.214325 220.865738,416.474609 
	C225.725830,417.922729 230.736649,418.046265 235.674011,416.645691 
	C241.823959,414.901154 245.595459,409.512848 245.622009,402.135925 
	C245.691605,382.810791 245.647980,363.485260 245.666977,344.159882 
	C245.669922,341.163239 245.764832,338.166626 245.916595,334.755249 
z"/>
<path fill="#000000" opacity="1.000000" stroke="none" 
	d="
M318.165222,395.602600 
	C317.470703,392.159912 319.251465,389.779846 320.338654,387.205780 
	C326.011353,373.775024 328.495636,359.780762 326.838440,345.287476 
	C325.614777,334.585297 320.286499,326.568207 309.639893,322.863312 
	C309.483002,322.808716 309.333130,322.733978 309.179901,322.668854 
	C305.703827,321.190552 302.623840,319.054535 304.197845,314.826691 
	C305.878052,310.313477 309.747162,310.746124 313.469543,312.165039 
	C325.164490,316.622955 332.730469,325.032257 336.326660,336.890167 
	C340.906586,351.991913 338.048798,366.866333 334.385925,381.655609 
	C333.794739,384.042633 333.024078,386.385223 332.437592,388.400543 
	C333.398804,389.940582 334.550629,390.241699 335.634766,390.639099 
	C343.129486,393.386169 347.191071,398.837006 347.968750,406.678986 
	C348.741913,414.475372 345.138824,420.401642 338.835358,424.336182 
	C330.436432,429.578613 321.150787,429.506317 311.847992,427.058624 
	C309.436523,426.424194 307.356964,424.909851 305.762848,422.870575 
	C303.733398,420.274353 302.779755,417.469177 305.149628,414.710968 
	C307.651093,411.799713 310.417450,412.841003 313.152222,414.682770 
	C318.852478,418.521820 327.314331,418.525787 332.897552,414.778748 
	C335.615601,412.954620 336.902435,410.371429 336.701385,407.120331 
	C336.502136,403.897888 334.492981,402.057953 331.679016,400.898407 
	C329.348053,399.937866 326.955872,399.299957 324.407043,399.359833 
	C321.722870,399.422882 319.464935,398.679749 318.165222,395.602600 
z"/>
<path fill="#000000" opacity="1.000000" stroke="none" 
	d="
M192.652039,425.917267 
	C182.448059,429.902557 172.753891,429.628998 163.521408,424.371307 
	C156.870712,420.583862 153.595779,414.492432 154.069244,406.890778 
	C154.528961,399.509766 158.206177,393.749451 165.300217,391.191406 
	C169.947357,389.515656 169.626251,387.155060 168.509506,383.250031 
	C164.225601,368.270264 161.588120,353.124786 165.646011,337.568970 
	C168.945450,324.920624 177.320984,317.019684 189.010361,312.120239 
	C192.773865,310.542816 196.158463,311.067841 197.829285,314.981476 
	C199.444687,318.765350 196.785355,321.024658 193.638901,322.242584 
	C179.669266,327.649933 174.775208,338.377838 174.961441,352.591278 
	C175.131668,365.584045 177.182739,378.046326 182.914810,389.822998 
	C185.823776,395.799469 183.832169,398.975677 177.139053,399.327423 
	C174.768219,399.451996 172.524063,399.919495 170.350861,400.792633 
	C167.579926,401.905914 165.411133,403.557007 165.187485,406.865814 
	C164.967102,410.126495 166.020828,412.921265 168.846832,414.562897 
	C174.995529,418.134827 181.489975,418.931793 187.821854,415.243408 
	C191.155869,413.301270 194.347061,410.750946 197.240356,415.080109 
	C199.949631,419.133881 197.418442,422.281097 194.244598,424.899109 
	C193.861710,425.214905 193.413620,425.451660 192.652039,425.917267 
z"/>
<path fill="#000000" opacity="1.000000" stroke="none" 
	d="
M385.332214,322.951752 
	C381.480225,331.044586 376.924072,332.737701 369.672302,328.599365 
	C365.198395,326.046326 361.415253,325.286377 356.951019,328.892670 
	C353.112823,331.993286 348.359772,333.816956 343.630035,330.389832 
	C338.896790,326.960175 337.973755,321.783936 339.042542,316.520691 
	C340.447601,309.601501 343.376434,303.332855 348.831116,298.446747 
	C356.038574,291.990662 363.545990,291.012207 371.543365,296.411438 
	C380.697693,302.591797 386.650726,310.745819 385.332214,322.951752 
M362.202759,303.808746 
	C365.544678,303.974792 367.409027,308.396271 371.405853,307.254181 
	C369.205811,301.079742 360.990845,298.290649 356.617920,302.095551 
	C357.718628,304.137604 359.741028,303.432861 362.202759,303.808746 
z"/>
<path fill="#000000" opacity="1.000000" stroke="none" 
	d="
M141.878998,285.870300 
	C141.730957,279.357910 142.506180,273.446808 144.625183,267.763458 
	C145.543900,265.299408 147.006149,263.202179 150.006195,263.399292 
	C153.027664,263.597839 154.733002,265.392273 155.378525,268.386993 
	C158.347290,282.159698 164.452744,294.006042 176.198975,302.464996 
	C178.807724,304.343658 180.472031,307.082031 178.188416,310.190704 
	C175.824188,313.409119 172.689926,312.696136 169.736435,310.893524 
	C164.138153,307.476776 159.815308,302.676727 155.139679,296.625793 
	C156.141739,303.391754 158.766815,308.312195 161.225861,313.290741 
	C162.182922,315.228363 163.229050,317.125366 164.108734,319.097015 
	C165.362457,321.906952 164.777008,324.495758 162.207870,326.101440 
	C159.294144,327.922516 156.592484,326.739655 154.852081,324.146271 
	C152.914688,321.259338 151.305161,318.128479 149.779663,314.993469 
	C145.374939,305.941498 142.381042,296.478302 141.878998,285.870300 
z"/>
<path fill="#000000" opacity="1.000000" stroke="none" 
	d="
M368.612610,264.568237 
	C375.329163,259.518463 381.414429,261.582489 383.715637,269.225525 
	C384.931976,273.265442 384.337097,277.133636 382.672272,280.819763 
	C380.995483,284.532410 378.161102,287.206390 373.835358,286.828125 
	C369.307343,286.432190 366.783112,283.201050 365.875580,279.061615 
	C364.787262,274.097473 365.056427,269.163330 368.612610,264.568237 
z"/>
<path fill="#000000" opacity="1.000000" stroke="none" 
	d="
M391.199890,279.802307 
	C396.785065,278.216980 399.953461,279.500488 402.207581,284.062805 
	C404.876801,289.465210 404.504730,294.686401 400.907562,299.542999 
	C398.721191,302.494873 395.890442,304.597290 391.991638,303.702728 
	C387.849701,302.752502 385.366852,299.837921 384.792358,295.707520 
	C383.919891,289.434692 385.033539,283.753906 391.199890,279.802307 
z"/>
<path fill="#000000" opacity="1.000000" stroke="none" 
	d="
M329.380249,279.372345 
	C335.650970,279.173492 338.546082,283.023926 339.833496,287.888763 
	C341.176636,292.964172 341.030701,298.189789 336.496582,302.061829 
	C333.544312,304.583038 330.165771,305.140808 326.870819,302.928253 
	C322.057068,299.695770 320.980591,294.658661 321.448181,289.340393 
	C321.863007,284.622253 323.824219,280.702454 329.380249,279.372345 
z"/>
<path fill="#000000" opacity="1.000000" stroke="none" 
	d="
M355.779755,263.109985 
	C361.319000,268.703430 361.330078,275.069916 358.844940,281.430359 
	C356.374390,287.753479 349.034821,288.469604 344.732697,283.166504 
	C340.764771,278.275421 340.558807,269.492645 344.424683,264.444611 
	C347.539734,260.376953 351.358521,260.394562 355.779755,263.109985 
z"/>
<path fill="#000000" opacity="1.000000" stroke="none" 
	d="
M253.515991,243.391418 
	C257.799225,243.905487 261.411621,245.206879 264.615814,247.364807 
	C273.686066,253.473312 272.991699,264.971863 263.269440,270.563995 
	C261.720734,271.454773 260.070953,272.169769 258.504913,272.947601 
	C261.785278,281.288940 269.118256,283.888397 275.950562,279.261169 
	C278.675964,277.415405 281.225250,277.026123 283.571960,279.483459 
	C286.122772,282.154572 285.383270,284.904602 283.246674,287.532043 
	C277.915039,294.088531 266.255829,295.686951 258.775848,289.546936 
	C253.179932,284.953461 249.686081,283.785065 243.756805,289.281250 
	C238.426208,294.222504 231.010071,294.579346 223.980423,291.421234 
	C221.302292,290.218048 219.150452,288.429413 217.958405,285.715088 
	C216.961685,283.445465 216.777512,281.088226 218.799744,279.256287 
	C220.941864,277.315765 223.248260,277.555939 225.676071,279.021240 
	C233.444565,283.709839 238.840851,282.061401 243.406281,273.726227 
	C243.339371,272.471008 242.297256,272.184906 241.421814,271.752686 
	C234.413254,268.292297 230.543884,262.806854 231.217010,257.269562 
	C231.972214,251.057037 238.203690,245.152161 245.655838,243.841248 
	C248.094208,243.412323 250.621338,243.487854 253.515991,243.391418 
M250.588028,254.894394 
	C247.468292,255.145294 242.978989,255.050446 243.186584,258.822632 
	C243.393204,262.576965 247.947815,262.772308 251.244919,262.622650 
	C254.466461,262.476501 259.143707,262.424683 259.126953,258.526855 
	C259.111359,254.908875 254.585144,255.070938 250.588028,254.894394 
z"/>
<path fill="#000000" opacity="1.000000" stroke="none" 
	d="
M274.554565,210.083435 
	C279.222717,211.600418 281.022186,214.676468 280.330200,219.011902 
	C279.748413,222.656845 277.498932,224.942139 273.691071,225.339691 
	C268.990936,225.830414 265.432251,222.948410 264.942474,218.521912 
	C264.479614,214.338623 268.537262,208.909409 274.554565,210.083435 
z"/>
<path fill="#000000" opacity="1.000000" stroke="none" 
	d="
M225.159912,210.969360 
	C229.309647,209.284546 232.739929,209.688934 235.345932,213.046677 
	C237.337906,215.613281 237.826950,218.517792 236.051346,221.417938 
	C234.226868,224.397995 231.434402,225.601776 227.978317,225.235016 
	C225.031815,224.922348 222.939224,223.227829 222.078171,220.548004 
	C220.924347,216.956955 221.663406,213.642776 225.159912,210.969360 
z"/>
</svg>